<svg width="507" height="507" viewBox="0 0 507 507" fill="none" xmlns="http://www.w3.org/2000/svg">
<path d="M299.451 0.166685C301.074 0.166685 301.876 2.18056 300.733 3.36284C289.822 14.5844 279.672 25.0245 269.512 35.4546C231.146 74.8303 192.961 114.386 154.345 153.512C128.955 179.241 98.204 187.437 63.9966 176.827C29.6488 166.176 8.96805 141.499 2.46522 105.84C-7.35415 51.9363 33.4664 1.28884 88.2043 0.537394C158.603 -0.434476 229.012 0.216792 299.421 0.176714C299.421 0.176714 299.441 0.176714 299.451 0.176714V0.166685Z" fill="url(#paint0_linear_946_2040)"/>
<path d="M90.6796 180.373C140.207 180.373 180.356 140.226 180.356 90.7009C180.356 41.1761 140.207 1.02832 90.6796 1.02832C41.1524 1.02832 1.00269 41.1761 1.00269 90.7009C1.00269 140.226 41.1524 180.373 90.6796 180.373Z" fill="#6246EA"/>
<path d="M204.432 505.728C202.98 505.187 203.5 502.783 204.623 501.711C219.532 487.503 234.672 473.526 249.221 458.958C283.178 424.943 316.614 390.396 350.661 356.461C379.447 327.786 423.565 320.241 459.636 338.947C484.104 351.632 499.394 373.284 503.843 402.339C512.75 460.531 470.186 505.338 417.152 505.939C346.753 506.74 276.344 506.259 205.945 506.31C205.514 506.31 205.084 506.249 204.643 505.959C203.16 504.987 205.164 505.989 204.442 505.728H204.432Z" fill="url(#paint1_linear_946_2040)"/>
<path d="M416.821 505.999C466.348 505.999 506.498 466.3 506.498 417.328C506.498 368.357 466.348 328.658 416.821 328.658C367.294 328.658 327.144 368.357 327.144 417.328C327.144 466.3 367.294 505.999 416.821 505.999Z" fill="#2867FF"/>
<path d="M79.5466 505.349C54.2367 505.379 22.5942 484.8 8.51646 451.836C-5.73164 418.462 1.00164 379.457 26.4318 353.898C134.916 244.878 243.52 135.979 352.275 27.2394C379.027 0.487932 418.766 -6.49546 452.602 8.49338C485.928 23.2618 507.09 56.5759 505.837 93.3166C504.986 118.054 495.397 139.145 477.772 156.709C387.684 246.511 297.697 336.424 207.659 426.277C190.024 443.881 172.37 461.455 154.655 478.969C136.97 496.462 115.748 505.48 79.5466 505.339V505.349Z" fill="url(#paint2_linear_946_2040)"/>
<path d="M417.323 179.372C466.85 179.372 507 139.224 507 89.6994C507 40.1746 466.85 0.0268555 417.323 0.0268555C367.796 0.0268555 327.646 40.1746 327.646 89.6994C327.646 139.224 367.796 179.372 417.323 179.372Z" fill="#F3712D"/>
<path d="M89.6769 507C139.204 507 179.354 466.853 179.354 417.328C179.354 367.803 139.204 327.655 89.6769 327.655C40.1497 327.655 0 367.803 0 417.328C0 466.853 40.1497 507 89.6769 507Z" fill="#FDBB05"/>
<defs>
<linearGradient id="paint0_linear_946_2040" x1="7.97609" y1="125.788" x2="301.15" y2="1.34882" gradientUnits="userSpaceOnUse">
<stop stop-color="#6246EA"/>
<stop offset="0.4" stop-color="#4529CE"/>
<stop offset="1" stop-color="#917AFD"/>
</linearGradient>
<linearGradient id="paint1_linear_946_2040" x1="500.306" y1="386.91" x2="200.418" y2="496.059" gradientUnits="userSpaceOnUse">
<stop stop-color="#2867FF"/>
<stop offset="0.4" stop-color="#1F5BEA"/>
<stop offset="1" stop-color="#5183FC"/>
</linearGradient>
<linearGradient id="paint2_linear_946_2040" x1="27.0831" y1="479.89" x2="479.814" y2="27.1474" gradientUnits="userSpaceOnUse">
<stop stop-color="#FE8C00"/>
<stop offset="0.2" stop-color="#F4D203"/>
<stop offset="0.8" stop-color="#FE8C00"/>
<stop offset="1" stop-color="#F1D10E"/>
</linearGradient>
</defs>
</svg>
